<svg id="Layer_1" data-name="Layer 1" xmlns="http://www.w3.org/2000/svg" viewBox="0 0 150.43 145"><defs><style>.cls-1{fill:#f46060;}.cls-2{fill:#fff;}</style></defs><title>bin</title><path class="cls-1" d="M167.77,178H83.59c-5.65,0-11.14-5.91-12.26-13.2L59.47,88.13c-1.12-7.29,3.87-13.19,11.16-13.19H179.37c7.29,0,12.36,5.9,11.33,13.19L179.86,164.8C178.83,172.09,173.42,178,167.77,178Z" transform="translate(-49.79 -33)"/><path class="cls-1" d="M56.13,72.55H193.87c5.6,0,7.93-4.53,5.21-10.13l-2.57-5.29C193.79,51.53,187.76,47,183.05,47H67c-4.71,0-10.74,4.53-13.46,10.13l-2.57,5.29C48.2,68,50.53,72.55,56.13,72.55Z" transform="translate(-49.79 -33)"/><path class="cls-1" d="M123.7,41a5.5,5.5,0,1,1-5.29,5.5A5.41,5.41,0,0,1,123.7,41m0-8A13.5,13.5,0,1,0,137,46.5,13.39,13.39,0,0,0,123.7,33Z" transform="translate(-49.79 -33)"/><rect class="cls-2" x="67.73" y="46.62" width="13.11" height="92.23" rx="5.5"/><path class="cls-2" d="M151.73,171.62h0c-3.6-.21-6.22-2.06-5.86-4.12l14.89-84.28c.36-2.07,3.58-3.57,7.18-3.36h0c3.6.21,6.23,2,5.86,4.11l-14.88,84.29C158.55,170.32,155.34,171.83,151.73,171.62Z" transform="translate(-49.79 -33)"/><path class="cls-2" d="M96.56,171.61h0c-3.6.21-6.82-1.29-7.19-3.35L74.22,84c-.37-2.06,2.25-3.91,5.85-4.12h0c3.6-.22,6.82,1.28,7.19,3.35l15.15,84.27C102.78,169.55,100.17,171.4,96.56,171.61Z" transform="translate(-49.79 -33)"/><rect class="cls-2" x="67.73" y="18" width="13.11" height="17.69" rx="5.5"/><path class="cls-2" d="M164.1,68h0c-3.32,1.19-7.18-.07-8.62-2.81l-3.32-6.31c-1.44-2.74.09-5.93,3.41-7.11h0c3.33-1.19,7.19.07,8.62,2.81l3.32,6.32C169,63.6,167.42,66.78,164.1,68Z" transform="translate(-49.79 -33)"/><path class="cls-2" d="M84.05,68h0c3.33,1.19,7.19-.07,8.62-2.81L96,58.84c1.44-2.74-.09-5.93-3.41-7.11h0c-3.32-1.19-7.18.07-8.62,2.81l-3.32,6.32C79.2,63.6,80.73,66.78,84.05,68Z" transform="translate(-49.79 -33)"/></svg>