<svg id="Layer_1" data-name="Layer 1" xmlns="http://www.w3.org/2000/svg" viewBox="0 0 124.87 202"><defs><style>.cls-1{fill:#fff;}</style></defs><title>bin</title><path d="M159.51,211H92.18c-5.65,0-10.74-5.91-11.39-13.2l-11-124.46a11.89,11.89,0,0,1,12-13.2h87a12,12,0,0,1,12.13,13.2L170.8,197.8C170.21,205.09,165.16,211,159.51,211Z" transform="translate(-62.84 -9)"/><path d="M72.2,56.65H178.35c7.29,0,11.12-5.91,8.56-13.2l-1.14-3.25C183.21,32.91,176.15,27,170,27H80.54c-6.14,0-13.2,5.91-15.76,13.2l-1.14,3.25C61.08,50.74,64.91,56.65,72.2,56.65Z" transform="translate(-62.84 -9)"/><path d="M125.5,19c4.07,0,7.5,2.52,7.5,5.5s-3.43,5.5-7.5,5.5-7.5-2.52-7.5-5.5,3.43-5.5,7.5-5.5m0-10C115.83,9,108,15.94,108,24.5S115.83,40,125.5,40,143,33.06,143,24.5,135.16,9,125.5,9Z" transform="translate(-62.84 -9)"/><rect class="cls-1" x="56.16" y="58" width="11" height="135" rx="5.5"/><rect class="cls-1" x="149" y="67" width="11" height="135" rx="5.5" transform="translate(-48.51 -23.87) rotate(5.78)"/><rect class="cls-1" x="89" y="67" width="11" height="135" rx="5.5" transform="translate(-76.13 1.4) rotate(-5.88)"/><rect class="cls-1" x="56.16" y="24" width="11" height="18" rx="5.5"/><rect class="cls-1" x="149" y="33" width="11" height="18" rx="5.5" transform="translate(-66.81 55.85) rotate(-23.41)"/><rect class="cls-1" x="89" y="33" width="11" height="18" rx="5.5" transform="translate(101.69 109.09) rotate(-156.59)"/></svg>